<svg xmlns="http://www.w3.org/2000/svg" viewBox="0 0 400 400">
	<defs>
		<style>.a{fill:#fff;}.b{fill:#231f20;}</style>
	</defs>

	<rect class="a" width="400" height="400"/>
	<rect class="b" x="82.71" y="170.21" width="254.33" height="194.61"/>
	<g id="door">
		<path class="a" d="M304.23,223H95.62v9.37H304.23Z"/>
		<path class="a" d="M304.23,280.09H95.62v9.37H304.23Z"/>
		<path class="a" d="M304.24,261.48H95.64v9.22h208.6Z"/>
		<path class="a" d="M95.61,213.66H304.22v-9.22H95.61Z"/>
		<path class="a" d="M95.61,308.49H304.22v-9.18H95.61Z"/>
		<path class="a" d="M304,242.35H95.66v9.06H304Z"/>
		<path class="a" d="M304.53,338.88v9.37H95.92v-9.37Z"/>
		<path class="a" d="M95.9,329.53v-9.22H304.51v9.22Z"/>
		<path class="b" d="M304.54,232.55H95.93v9.37H304.54Z"/>
		<path class="b" d="M304.54,289.63H95.93V299H304.54Z"/>
		<path class="b" d="M304.55,271H96v9.23h208.6Z"/>
		<path class="b" d="M95.92,223.2H304.53V214H95.92Z"/>
		<path class="b" d="M95.92,318H304.53v-9.19H95.92Z"/>
		<path class="b" d="M304.29,251.88H96V261H304.29Z"/>
		<path class="b" d="M304.84,348.42v9.37H96.23v-9.37Z"/>
		<path class="b" d="M96.22,339.06v-9.21H304.83v9.21Z"/>
	</g>

	<rect class="a" x="72.71" y="2.28" width="254.33" height="130.84"/>
	<path class="b" d="M355.92,100.47q-78.84-33.4-157.68-66.8a7.18,7.18,0,0,0-6.36-.09Q124.64,63.91,57.33,94.11c-8.38,3.77-16.68,7.72-25.07,11.48a3.74,3.74,0,0,0-2.4,3.76c-.09,4.35-.33,8.69-.31,13q.06,14.78.32,29.56c.06,3.47.83,4.16,4.38,4.37l13.76.77v2.38q.08,85.49.18,171c0,9.8.3,19.59.47,29.39a10.08,10.08,0,0,0,.15,1.9c.57,2.77,1.1,3.4,3.92,3.4,9-.08,20.27-.13,33.18-.16V192.24H312.46V365c10.35,0,20.71-.21,31.07-.35,1.56,0,3.12-.2,4.68-.3,2.3-.14,2.61-.41,2.72-2.83.16-3.59.34-7.18.36-10.78q.34-95.91.67-191.83v-2.62c1.73,0,3.28.07,4.83,0,3.7-.17,7.39-.44,11.09-.6,1.4-.06,1.94-.79,2.06-2.06.16-1.66.34-3.31.51-5V106.92C365.61,104.77,360.8,102.54,355.92,100.47Z"/>
	<path class="b" d="M86,148.32h47.09v28H86Z"/>
	<path class="b" d="M190.17,176.32H143.09V148.38h47.08Z"/>
	<path class="b" d="M247.22,176.34H200.09v-28h47.13Z"/>
	<path class="b" d="M313.27,176.32H266.09V148.37h47.18Z"/>
	<path class="a" d="M352,138.61H332.65V347.5H313.46V195.76H85.94V347.48H66.59V138.61H48.12c0-.67-.11-1.17-.12-1.67,0-5.21,0-10.43,0-15.65a2,2,0,0,1,1.38-2.23q72.27-32.48,144.53-65a4,4,0,0,1,2.9,0q48.84,20.68,97.65,41.47c18.4,7.82,36.78,15.69,55.2,23.47a2.82,2.82,0,0,1,2.06,3c0,4.81.18,9.62.29,14.43C352,137.12,352,137.74,352,138.61ZM86,148.32v28h47.09v-28Zm104.15,28V148.38H143.09v27.94Zm57.05,0v-28H200.09v28Zm66,0V148.37H266.09v27.95Z"/>
</svg>